<svg xmlns="http://www.w3.org/2000/svg" width="220" height="220" viewBox="0 0 220 220">
    <defs>
        <style>
            .cls-1{fill:#e3e3e3}
        </style>
    </defs>
    <g id="user_icon" transform="translate(-506 -254)">
        <path id="사각형_687" d="M0 0H220V220H0z" class="cls-1" transform="translate(506 254)"/>
        <g id="ico_user" transform="translate(1216.26 274.76)">
            <path id="패스_2048" fill="#fff" d="M-510 90a90 90 0 0 1-90 90 90 90 0 0 1-90-90 90 90 0 0 1 90-90 90 90 0 0 1 90 90z" transform="translate(-.26 -.76)"/>
            <path id="패스_2049" d="M-524.1 132.605a32.822 32.822 0 0 0 13.13-26.256A32.887 32.887 0 0 0-543.819 73.5a32.887 32.887 0 0 0-32.849 32.849 32.821 32.821 0 0 0 13.128 26.256 56.372 56.372 0 0 0-36.56 52.709h10.165a46.167 46.167 0 0 1 46.117-46.114 46.166 46.166 0 0 1 46.118 46.114h10.165a56.373 56.373 0 0 0-36.565-52.709zm-42.4-26.256a22.709 22.709 0 0 1 22.684-22.684 22.709 22.709 0 0 1 22.684 22.684 22.71 22.71 0 0 1-22.684 22.686 22.71 22.71 0 0 1-22.684-22.686z" class="cls-1" transform="translate(-56.163 -40.26)"/>
        </g>
    </g>
</svg>
